<?xml version="1.0" encoding="UTF-8"?>
<svg width="16" height="16" version="1.1" viewBox="0 0 16 16" xmlns="http://www.w3.org/2000/svg">
 <g clip-rule="evenodd" fill-rule="evenodd">
  <path d="M1 16H16V9H1V16Z" fill="#40B6E0" fill-opacity=".6"/>
  <path d="M7 1L3 5H7V1Z" fill="#9AA7B0" fill-opacity=".8"/>
  <path d="M8 1V6H3V8H13V1H8Z" fill="#9AA7B0" fill-opacity=".8"/>
 </g>
 <g transform="scale(1.0803 .92563)" opacity=".7" stroke-width="1.1151" aria-label="VHD">
  <path d="m2.9427 16.258-1.3678-5.4266h0.96638l0.81771 3.5384q0.066903 0.26018 0.12637 0.56496 0.05947 0.29735 0.089204 0.47576 0.029735-0.17841 0.081771-0.47576 0.052036-0.30478 0.11151-0.5724l0.81027-3.531h0.93665l-1.3678 5.4266z"/>
  <path d="m6.3473 16.258v-5.4266h0.92921v2.1781h1.457v-2.1781h0.92921v5.4266h-0.92921v-2.3862h-1.457v2.3862z"/>
  <path d="m10.793 16.258v-5.4266h1.6131q0.55009 0 0.95152 0.21558 0.40885 0.20814 0.63186 0.58726 0.22301 0.37912 0.22301 0.89205v2.0294q0 0.51293-0.22301 0.89948-0.22301 0.37912-0.63186 0.5947-0.40142 0.20814-0.95152 0.20814zm0.92921-0.85488h0.6839q0.40142 0 0.6393-0.22301 0.23788-0.23044 0.23788-0.62443v-2.0294q0-0.38655-0.23788-0.60956-0.23788-0.23044-0.6393-0.23044h-0.6839z"/>
 </g>
  <!--consider text color #231f20 if this too dark-->
</svg>
